<svg width="18" height="32" viewBox="0 0 18 32" fill="none" xmlns="http://www.w3.org/2000/svg">
<path d="M9.67725 0.9275C9.55275 0.6665 9.2895 0.5 9 0.5C8.7105 0.5 8.44725 0.6665 8.32275 0.9275L0.822755 16.6775C0.720755 16.8905 0.726005 17.1395 0.836255 17.3495L8.33625 31.5995C8.466 31.8455 8.72175 32 9 32C9.27825 32 9.534 31.8455 9.66375 31.5995L17.1638 17.3495C17.274 17.1402 17.2793 16.8912 17.1773 16.6775L9.67725 0.9275ZM9.75 4.5695L15.447 16.5328L9.75 18.242V4.5695ZM8.25 18.242L2.553 16.5328L8.25 4.5695V18.242ZM8.25 19.808V28.214L2.9955 18.2315L8.25 19.808ZM9.75 19.808L15.0045 18.2315L9.75 28.2147V19.808Z" fill="white"/>
</svg>
