<svg width="25" height="16" viewBox="0 0 25 16" fill="none" xmlns="http://www.w3.org/2000/svg">
<path d="M24.5454 4.95546L20.0454 0.45545C19.8332 0.250522 19.549 0.137128 19.254 0.139691C18.9591 0.142254 18.6769 0.260569 18.4683 0.469154C18.2597 0.677738 18.1414 0.959903 18.1389 1.25487C18.1363 1.54985 18.2497 1.83402 18.4546 2.0462C19.4065 2.99817 18.7323 4.62583 17.3861 4.62583H5.75C5.45163 4.62583 5.16548 4.74436 4.95451 4.95534C4.74353 5.16632 4.625 5.45246 4.625 5.75083C4.625 6.0492 4.74353 6.33535 4.95451 6.54633C5.16548 6.75731 5.45163 6.87584 5.75 6.87584H23.75C23.9725 6.87579 24.1899 6.80978 24.3749 6.68616C24.5599 6.56254 24.704 6.38686 24.7891 6.18132C24.8743 5.97578 24.8965 5.74962 24.8532 5.53142C24.8098 5.31323 24.7027 5.11279 24.5454 4.95546Z" fill="url(#paint0_linear_485_43)"/>
<path d="M19.2499 9.125H1.24994C1.02747 9.12505 0.810014 9.19105 0.625053 9.31467C0.440092 9.43829 0.295935 9.61398 0.210806 9.81951C0.125677 10.025 0.103398 10.2512 0.146787 10.4694C0.190175 10.6876 0.297283 10.888 0.454569 11.0454L4.95457 15.5454C5.16675 15.7503 5.45092 15.8637 5.74589 15.8611C6.04087 15.8586 6.32303 15.7402 6.53161 15.5317C6.7402 15.3231 6.85851 15.0409 6.86108 14.7459C6.86364 14.451 6.75025 14.1668 6.54532 13.9546C5.5934 13.0027 6.26761 11.375 7.61386 11.375H19.2499C19.5483 11.375 19.8345 11.2565 20.0454 11.0455C20.2564 10.8345 20.3749 10.5484 20.3749 10.25C20.3749 9.95163 20.2564 9.66548 20.0454 9.4545C19.8345 9.24353 19.5483 9.125 19.2499 9.125Z" fill="url(#paint1_linear_485_43)"/>
<defs>
<linearGradient id="paint0_linear_485_43" x1="5.6724" y1="0.588728" x2="20.468" y2="11.554" gradientUnits="userSpaceOnUse">
<stop stop-color="#6763FD"/>
<stop offset="1" stop-color="#B84EF1"/>
</linearGradient>
<linearGradient id="paint1_linear_485_43" x1="1.17258" y1="9.57408" x2="15.9682" y2="20.5393" gradientUnits="userSpaceOnUse">
<stop stop-color="#6763FD"/>
<stop offset="1" stop-color="#B84EF1"/>
</linearGradient>
</defs>
</svg>
